<?xml version="1.0" encoding="UTF-8" standalone="no"?>
<svg width="402px" height="402px" version="1.1" xmlns="http://www.w3.org/2000/svg" xmlns:xlink="http://www.w3.org/1999/xlink" xmlns:sketch="http://www.bohemiancoding.com/sketch/ns">
    <title>b circle hover</title>
    <description>Created with Sketch (http://www.bohemiancoding.com/sketch)</description>
    <defs></defs>
    <g id="Page 1" fill="rgb(223,223,223)" fill-rule="evenodd">
        <path d="M201,401 C311.456955,401 401,311.456955 401,201 C401,90.5430446 311.456955,1 201,1 C90.5430446,1 1,90.5430446 1,201 C1,311.456955 90.5430446,401 201,401 Z M201,401" id="Oval 1" fill="rgb(75,13,83)"></path>
        <path d="M201,361 C289.365564,361 361,289.365564 361,201 C361,112.634436 289.365564,41 201,41 C112.634436,41 41,112.634436 41,201 C41,289.365564 112.634436,361 201,361 Z M201,361" id="Oval 2" fill="rgb(255,255,255)"></path>
        <path d="M133.429688,81.25 L154.664062,72.8125 L163.382812,72.8125 L163.382812,178.421875 C165.820325,174.203104 169.03123,170.195331 173.015625,166.398438 C177.00002,162.601544 181.335914,159.273452 186.023438,156.414062 C190.710961,153.554673 195.585912,151.281258 200.648438,149.59375 C205.710963,147.906242 210.585914,147.0625 215.273438,147.0625 C224.085982,147.0625 232.171838,148.843732 239.53125,152.40625 C246.890662,155.968768 253.242161,160.796845 258.585938,166.890625 C263.929714,172.984405 268.101548,180.109334 271.101562,188.265625 C274.101577,196.421916 275.601562,205.140579 275.601562,214.421875 C275.601562,222.765667 274.59376,230.757774 272.578125,238.398438 C270.56249,246.039101 267.750018,253.187467 264.140625,259.84375 C260.531232,266.500033 256.148463,272.570285 250.992188,278.054688 C245.835912,283.53909 240.140656,288.226543 233.90625,292.117188 C227.671844,296.007832 220.968786,299.031239 213.796875,301.1875 C206.624964,303.343761 199.148476,304.421875 191.367188,304.421875 C180.210882,304.421875 169.664112,302.968765 159.726562,300.0625 C149.789013,297.156235 141.023475,292.609406 133.429688,286.421875 Z M163.382812,188.6875 L163.382812,276.4375 C165.257822,278.312509 167.320301,280.164053 169.570312,281.992188 C171.820324,283.820322 174.304674,285.484368 177.023438,286.984375 C179.742201,288.484382 182.789046,289.70312 186.164062,290.640625 C189.539079,291.57813 193.335916,292.046875 197.554688,292.046875 C204.585973,292.046875 210.960909,290.359392 216.679688,286.984375 C222.398466,283.609358 227.296855,278.898468 231.375,272.851562 C235.453145,266.804657 238.617176,259.632854 240.867188,251.335938 C243.117199,243.039021 244.242188,233.968799 244.242188,224.125 C244.242188,216.624963 243.093761,209.593783 240.796875,203.03125 C238.499989,196.468717 235.359395,190.773462 231.375,185.945312 C227.390605,181.117163 222.703152,177.296889 217.3125,174.484375 C211.921848,171.671861 206.179718,170.265625 200.085938,170.265625 C196.710921,170.265625 193.218768,170.73437 189.609375,171.671875 C185.999982,172.60938 182.554704,173.921867 179.273438,175.609375 C175.992171,177.296883 172.968764,179.265614 170.203125,181.515625 C167.437486,183.765636 165.164071,186.156237 163.382812,188.6875 Z M163.382812,188.6875" id="b" fill="rgb(0,0,0)"></path>
    </g>
</svg>