<?xml version="1.0" encoding="UTF-8" standalone="no"?>
<svg width="660px" height="660px" viewBox="0 0 660 660" version="1.1" xmlns="http://www.w3.org/2000/svg" xmlns:xlink="http://www.w3.org/1999/xlink" xmlns:sketch="http://www.bohemiancoding.com/sketch/ns" id="technology">
    <title>Pixelated Purple Texas Vector</title>
    <description>Created with Sketch (http://www.bohemiancoding.com/sketch)</description>
    <defs></defs>
    <g id="Page 1" fill="#D8D8D8" fill-rule="evenodd">
        <path d="M171,20 L171,70 L221,70 L221,20 L171,20 Z M171,20" id="Rectangle 1" stroke="rgb(137,137,137)" stroke-width="1" fill="#3A0042"></path>
        <path d="M171,289 L171,339 L221,339 L221,289 L171,289 Z M171,289" id="Rectangle 1 copy" stroke="rgb(137,137,137)" stroke-width="1" fill="#3A0042"></path>
        <path d="M117,334 L117,384 L167,384 L167,334 L117,334 Z M117,388 L117,438 L167,438 L167,388 L117,388 Z M63,334 L63,384 L113,384 L113,334 L63,334 Z M958,681 L958,731 L1008,731 L1008,681 L958,681 Z M1108,711 L1108,761 L1158,761 L1158,711 L1108,711 Z M1168,321 L1168,371 L1218,371 L1218,321 L1168,321 Z M1188,501 L1188,551 L1238,551 L1238,501 L1188,501 Z M9,280 L9,330 L59,330 L59,280 L9,280 Z M63,280 L63,330 L113,330 L113,280 L63,280 Z M171,181 L171,231 L221,231 L221,181 L171,181 Z M171,235 L171,285 L221,285 L221,235 L171,235 Z M117,280 L117,330 L167,330 L167,280 L117,280 Z M117,280" id="Rectangle 1 copy 2" stroke="rgb(137,137,137)" stroke-width="1" fill="#3A0042"></path>
        <path d="M171,74 L171,124 L221,124 L221,74 L171,74 Z M225,74 L225,124 L275,124 L275,74 L225,74 Z M278,74 L278,124 L328,124 L328,74 L278,74 Z M171,128 L171,178 L221,178 L221,128 L171,128 Z M225,128 L225,178 L275,178 L275,128 L225,128 Z M278,128 L278,178 L328,178 L328,128 L278,128 Z M278,128" id="Rectangle 1 copy" stroke="rgb(137,137,137)" stroke-width="1" fill="#3A0042"></path>
        <path d="M225,20 L225,70 L275,70 L275,20 L225,20 Z M225,20" id="Rectangle 1 copy" stroke="rgb(137,137,137)" stroke-width="1" fill="#3A0042"></path>
        <path d="M279,20 L279,70 L329,70 L329,20 L279,20 Z M279,20" id="Rectangle 1 copy 2" stroke="rgb(137,137,137)" stroke-width="1" fill="#3A0042"></path>
        <path d="M494,168 L494,218 L544,218 L544,168 L494,168 Z M494,168" id="Rectangle 1 copy 3" stroke="rgb(137,137,137)" stroke-width="1" fill="#3A0042"></path>
        <path d="M548,164 L548,214 L598,214 L598,164 L548,164 Z M548,164" id="Rectangle 1 copy 4" stroke="rgb(137,137,137)" stroke-width="1" fill="#3A0042"></path>
        <path d="M440,162 L440,212 L490,212 L490,162 L440,162 Z M386,154 L386,204 L436,204 L436,154 L386,154 Z M332,141 L332,191 L382,191 L382,141 L332,141 Z M998,197 L998,247 L1048,247 L1048,197 L998,197 Z M968,264 L968,314 L1018,314 L1018,264 L968,264 Z M602,287 L602,337 L652,337 L652,287 L602,287 Z M548,326 L548,376 L598,376 L598,326 L548,326 Z M494,330 L494,380 L544,380 L544,330 L494,330 Z M278,235 L278,285 L328,285 L328,235 L278,235 Z M1113,405 L1113,455 L1163,455 L1163,405 L1113,405 Z M224,397 L224,447 L274,447 L274,397 L224,397 Z M170,343 L170,393 L220,393 L220,343 L170,343 Z M224,343 L224,393 L274,393 L274,343 L224,343 Z M278,451 L278,501 L328,501 L328,451 L278,451 Z M278,397 L278,447 L328,447 L328,397 L278,397 Z M278,343 L278,393 L328,393 L328,343 L278,343 Z M1108,601 L1108,651 L1158,651 L1158,601 L1108,601 Z M332,519 L332,569 L382,569 L382,519 L332,519 Z M332,465 L332,515 L382,515 L382,465 L332,465 Z M332,411 L332,461 L382,461 L382,411 L332,411 Z M332,357 L332,407 L382,407 L382,357 L332,357 Z M386,586 L386,636 L436,636 L436,586 L386,586 Z M1068,488 L1068,538 L1118,538 L1118,488 L1068,488 Z M386,532 L386,582 L436,582 L436,532 L386,532 Z M386,478 L386,528 L436,528 L436,478 L386,478 Z M386,424 L386,474 L436,474 L436,424 L386,424 Z M386,370 L386,420 L436,420 L436,370 L386,370 Z M440,594 L440,644 L490,644 L490,594 L440,594 Z M440,540 L440,590 L490,590 L490,540 L440,540 Z M440,486 L440,536 L490,536 L490,486 L440,486 Z M440,432 L440,482 L490,482 L490,432 L440,432 Z M440,378 L440,428 L490,428 L490,378 L440,378 Z M494,438 L494,488 L544,488 L544,438 L494,438 Z M494,384 L494,434 L544,434 L544,384 L494,384 Z M548,380 L548,430 L598,430 L598,380 L548,380 Z M602,341 L602,391 L652,391 L652,341 L602,341 Z M1088,339 L1088,389 L1138,389 L1138,339 L1088,339 Z M224,235 L224,285 L274,285 L274,235 L224,235 Z M332,249 L332,299 L382,299 L382,249 L332,249 Z M386,262 L386,312 L436,312 L436,262 L386,262 Z M440,270 L440,320 L490,320 L490,270 L440,270 Z M494,276 L494,326 L544,326 L544,276 L494,276 Z M548,272 L548,322 L598,322 L598,272 L548,272 Z M548,218 L548,268 L598,268 L598,218 L548,218 Z M494,222 L494,272 L544,272 L544,222 L494,222 Z M440,216 L440,266 L490,266 L490,216 L440,216 Z M386,208 L386,258 L436,258 L436,208 L386,208 Z M332,195 L332,245 L382,245 L382,195 L332,195 Z M279,181 L279,231 L329,231 L329,181 L279,181 Z M225,181 L225,231 L275,231 L275,181 L225,181 Z M386,316 L386,366 L436,366 L436,316 L386,316 Z M440,324 L440,374 L490,374 L490,324 L440,324 Z M332,303 L332,353 L382,353 L382,303 L332,303 Z M278,289 L278,339 L328,339 L328,289 L278,289 Z M224,289 L224,339 L274,339 L274,289 L224,289 Z M224,289" id="Rectangle 1 copy 4" stroke="rgb(137,137,137)" stroke-width="1" fill="#3A0042"></path>
    </g>
</svg>
